# xmcd
#
# Track frame offsets:
#	150
#	14446
#	32501
#	52861
#	69211
#	87000
#	104927
#	119831
#	144924
#	162594
#	178259
#	195998
#	215410
#	232477
#	254404
#	272373
#	288535
#	305896
#
# Disc length: 4340 seconds
#
# Revision: 2
# Processed by: cddbd v1.5.2PL0 Copyright (c) Steve Scherf et al.
# Submitted via: dBpowerAMP V4.0
#
DISCID=1110f212
DTITLE=Various Artist - Country's Got Heart
DYEAR=2005
DGENRE=Country
TTITLE0=Clay Walker - Rumor Has it
TTITLE1=Lonestar - Amazed
TTITLE2=Clint Black and Lisa Hartman Black - When I Said I Do
TTITLE3=Diamond Rio - One More Day
TTITLE4=Alan Jackson - There Goes
TTITLE5=Mark Chestnutt - I Don't Want To Miss A Thing
TTITLE6=Mark Wills - I Do (Cherish You)
TTITLE7=Sara Evans - Born To Fly
TTITLE8=John Michael Montgomery - I Can Love You Like That
TTITLE9=Kevin Sharp - Nobody Knows
TTITLE10=Phil Vassar - Just Another Day In Paradise
TTITLE11=Tracy Byrd - The Keeper Of The Stars
TTITLE12=Brad Paisley - We Danced
TTITLE13=Deana Carter - Strawberry Wine
TTITLE14=Vince Gill - I Still Believe In You
TTITLE15=Clint Black - Like The Rain
TTITLE16=Kenny Chesney - You Had Me From Hello
TTITLE17=Alison Krauss and Union Station - When You Say Nothing at All
EXTD=Corrected typos.
EXTT0=
EXTT1=
EXTT2=
EXTT3=
EXTT4=
EXTT5=
EXTT6=
EXTT7=
EXTT8=
EXTT9=
EXTT10=
EXTT11=
EXTT12=
EXTT13=
EXTT14=
EXTT15=
EXTT16=
EXTT17=
PLAYORDER=
